HIERARCHY
ROOT root
{
  OFFSET 0 93.2929 0
  CHANNELS 6 Xposition Yposition Zposition Zrotation Xrotation Yrotation
  JOINT torso_1
  {
    OFFSET 0 5.07867 -1.15138
    CHANNELS 6 Xposition Yposition Zposition Zrotation Xrotation Yrotation
    JOINT torso_2
    {
      OFFSET 0 5.61661 1.07143
      CHANNELS 6 Xposition Yposition Zposition Zrotation Xrotation Yrotation
      JOINT torso_3
      {
        OFFSET -1.02604e-17 5.98978 0.11501
        CHANNELS 6 Xposition Yposition Zposition Zrotation Xrotation Yrotation
        JOINT torso_4
        {
          OFFSET -1.10457e-17 6.50583 -0.443523
          CHANNELS 6 Xposition Yposition Zposition Zrotation Xrotation Yrotation
          JOINT torso_5
          {
            OFFSET -1.97295e-17 7.60548 -1.50593
            CHANNELS 6 Xposition Yposition Zposition Zrotation Xrotation Yrotation
            JOINT torso_6
            {
              OFFSET -2.53307e-17 9.49737 -0.914492
              CHANNELS 6 Xposition Yposition Zposition Zrotation Xrotation Yrotation
              JOINT torso_7
              {
                OFFSET -2.90401e-17 10.5513 1.57691
                CHANNELS 6 Xposition Yposition Zposition Zrotation Xrotation Yrotation
                JOINT neck_1
                {
                  OFFSET -1.29193e-17 4.78644 0.715339
                  CHANNELS 6 Xposition Yposition Zposition Zrotation Xrotation Yrotation
                  JOINT neck_2
                  {
                    OFFSET -1.8116e-17 4.82109 0.421791
                    CHANNELS 6 Xposition Yposition Zposition Zrotation Xrotation Yrotation
                    JOINT head
                    {
                      OFFSET -2.00958e-17 4.83041 0.765062
                      CHANNELS 6 Xposition Yposition Zposition Zrotation Xrotation Yrotation
                      End Site
                      {
                        OFFSET 0 0.1 0
                      }
                    }
                  }
                }
                JOINT l_shoulder
                {
                  OFFSET 1.23299 -7.60731 7.53374
                  CHANNELS 6 Xposition Yposition Zposition Zrotation Xrotation Yrotation
                  JOINT l_up_arm
                  {
                    OFFSET 12.9547 3.2495 -3.26872
                    CHANNELS 6 Xposition Yposition Zposition Zrotation Xrotation Yrotation
                    JOINT l_low_arm
                    {
                      OFFSET 29.2081 0.0598081 0.137039
                      CHANNELS 6 Xposition Yposition Zposition Zrotation Xrotation Yrotation
                      JOINT l_hand
                      {
                        OFFSET 24.234 0.0496219 0.113701
                        CHANNELS 6 Xposition Yposition Zposition Zrotation Xrotation Yrotation
                        End Site
                        {
                          OFFSET 0.1 0 0
                        }
                      }
                    }
                  }
                }
                JOINT r_shoulder
                {
                  OFFSET -1.23299 -7.60729 7.53365
                  CHANNELS 6 Xposition Yposition Zposition Zrotation Xrotation Yrotation
                  JOINT r_up_arm
                  {
                    OFFSET -12.9547 3.2495 -3.26872
                    CHANNELS 6 Xposition Yposition Zposition Zrotation Xrotation Yrotation
                    JOINT r_low_arm
                    {
                      OFFSET -29.2081 0.0598081 0.137039
                      CHANNELS 6 Xposition Yposition Zposition Zrotation Xrotation Yrotation
                      JOINT r_hand
                      {
                        OFFSET -24.234 0.0496218 0.113702
                        CHANNELS 6 Xposition Yposition Zposition Zrotation Xrotation Yrotation
                        End Site
                        {
                          OFFSET -0.1 0 0
                        }
                      }
                    }
                  }
                }
              }
            }
          }
        }
      }
    }
  }
  JOINT l_up_leg
  {
    OFFSET 9.23673 -4.20556 2.0327
    CHANNELS 6 Xposition Yposition Zposition Zrotation Xrotation Yrotation
    JOINT l_low_leg
    {
      OFFSET -0.852353 -38.7721 -0.655187
      CHANNELS 6 Xposition Yposition Zposition Zrotation Xrotation Yrotation
      JOINT l_foot
      {
        OFFSET -2.32622 -40.4017 -6.04875
        CHANNELS 6 Xposition Yposition Zposition Zrotation Xrotation Yrotation
        JOINT l_toes
        {
          OFFSET 0.779096 -9.8844 12.4959
          CHANNELS 6 Xposition Yposition Zposition Zrotation Xrotation Yrotation
          End Site
          {
            OFFSET 0 0 0.1
          }
        }
      }
    }
  }
  JOINT r_up_leg
  {
    OFFSET -9.23673 -4.20556 2.0327
    CHANNELS 6 Xposition Yposition Zposition Zrotation Xrotation Yrotation
    JOINT r_low_leg
    {
      OFFSET 0.852353 -38.7721 -0.655187
      CHANNELS 6 Xposition Yposition Zposition Zrotation Xrotation Yrotation
      JOINT r_foot
      {
        OFFSET 2.32622 -40.4017 -6.04875
        CHANNELS 6 Xposition Yposition Zposition Zrotation Xrotation Yrotation
        JOINT r_toes
        {
          OFFSET -0.779096 -9.8844 12.4959
          CHANNELS 6 Xposition Yposition Zposition Zrotation Xrotation Yrotation
          End Site
          {
            OFFSET 0 0 0.1
          }
        }
      }
    }
  }
}
MOTION
Frames: 8
Frame Time: 0.016667
-407.746 87.2003 -147.427 -5.919 -0.474124 -11.1961 0 5.07867 -1.15138 2.44615 1.59234 2.27545 0 5.61661 1.07143 1.84023 1.6725 2.4633 -1.02604e-17 5.98978 0.11501 1.13966 1.93987 2.39822 -1.10457e-17 6.50583 -0.443523 0.479061 1.90504 2.34859 -1.97295e-17 7.60548 -1.50593 0.205323 1.76833 2.19866 -2.53307e-17 9.49737 -0.914492 0.249018 2.01118 1.99929 -2.90401e-17 10.5513 1.57691 0.117421 0.792017 -0.302511 -1.29193e-17 4.78644 0.715339 -1.29548 -4.69132 -5.91299 -1.8116e-17 4.82109 0.421791 -0.252873 -6.52272 -2.81324 -2.00958e-17 4.83041 0.765062 1.05033 -5.62754 5.21491 1.23299 -7.60731 7.53374 -7.67353 5.00304 -2.15675 12.9547 3.2495 -3.26872 -81.9102 2.5833 18.1798 29.2081 0.0598081 0.137039 1.42242 -0.0780213 -6.87106 24.234 0.0496219 0.113701 4.19405 -49.1377 8.87152 -1.23299 -7.60729 7.53365 -4.68982 0.0414219 -0.888813 -12.9547 3.2495 -3.26872 68.4373 18.9511 18.1627 -29.2081 0.0598081 0.137039 -6.35174 -1.79811 32.1778 -24.234 0.0496218 0.113702 1.66862 -32.992 5.30029 9.23673 -4.20556 2.0327 17.1669 -28.9835 -5.10381 -0.852353 -38.7721 -0.655187 0.293364 -1.09382 0.0218945 -2.32622 -40.4017 -6.04875 -14.6282 17.4702 19.5258 0.779096 -9.8844 12.4959 2.39684e-15 -5.6933e-16 -2.90478e-16 -9.23673 -4.20556 2.0327 5.38951 10.4764 17.5304 0.852353 -38.7721 -0.655187 0.266334 0.994319 0.0150452 2.32622 -40.4017 -6.04875 -13.4702 -16.8264 -16.5421 -0.779096 -9.8844 12.4959 5.68802e-17 -4.14269e-16 -1.26103e-14 
-408.438 86.785 -144.814 -5.99623 -0.402286 -11.7205 0 5.07867 -1.15138 2.30576 1.40092 2.47674 0 5.61661 1.07143 1.70459 1.54447 2.64057 -1.02604e-17 5.98978 0.11501 1.02983 1.88974 2.56355 -1.10457e-17 6.50583 -0.443523 0.39605 1.96449 2.51274 -1.97295e-17 7.60548 -1.50593 0.186402 1.9187 2.36391 -2.53307e-17 9.49737 -0.914492 0.300076 2.24884 2.13434 -2.90401e-17 10.5513 1.57691 0.122991 0.786341 -0.304458 -1.29193e-17 4.78644 0.715339 -1.31339 -4.36509 -6.29937 -1.8116e-17 4.82109 0.421791 -0.0245319 -6.63648 -2.98416 -2.00958e-17 4.83041 0.765062 1.20587 -5.93736 5.16109 1.23299 -7.60731 7.53374 -7.06706 4.7859 -1.70958 12.9547 3.2495 -3.26872 -81.9664 2.39814 20.0011 29.2081 0.0598081 0.137039 1.57843 -0.097044 -7.62846 24.234 0.0496219 0.113701 4.77412 -47.5086 9.9991 -1.23299 -7.60729 7.53365 -4.81049 -0.21594 -1.00663 -12.9547 3.2495 -3.26872 67.9606 19.2224 19.3687 -29.2081 0.0598081 0.137039 -6.53503 -1.91438 33.2179 -24.234 0.0496218 0.113702 1.14455 -33.4654 5.00782 9.23673 -4.20556 2.0327 17.9563 -28.6835 -3.94033 -0.852353 -38.7721 -0.655187 0.680855 -2.53496 0.0593257 -2.32622 -40.4017 -6.04875 -13.7777 14.1195 18.8258 0.779096 -9.8844 12.4959 -1.44068e-15 -7.35128e-16 -1.29143e-16 -9.23673 -4.20556 2.0327 5.34965 11.8528 17.7995 0.852353 -38.7721 -0.655187 0.54443 2.03317 0.0258304 2.32622 -40.4017 -6.04875 -13.5929 -17.8246 -16.6101 -0.779096 -9.8844 12.4959 1.95015e-16 -4.20237e-16 -1.26167e-14 
-409.143 86.4356 -142.173 -5.99978 -0.403407 -12.1836 0 5.07867 -1.15138 2.10668 1.19053 2.66926 0 5.61661 1.07143 1.51964 1.40339 2.79984 -1.02604e-17 5.98978 0.11501 0.883124 1.82955 2.71082 -1.10457e-17 6.50583 -0.443523 0.287139 2.02153 2.65991 -1.97295e-17 7.60548 -1.50593 0.154388 2.07303 2.52148 -2.53307e-17 9.49737 -0.914492 0.350136 2.48469 2.26442 -2.90401e-17 10.5513 1.57691 0.123885 0.7755 -0.304917 -1.29193e-17 4.78644 0.715339 -1.34397 -4.34381 -6.57734 -1.8116e-17 4.82109 0.421791 0.19376 -6.66035 -3.1137 -2.00958e-17 4.83041 0.765062 1.40317 -5.8324 4.97321 1.23299 -7.60731 7.53374 -6.5322 4.57504 -1.27159 12.9547 3.2495 -3.26872 -81.6777 1.77396 21.4931 29.2081 0.0598081 0.137039 1.72058 -0.116204 -8.31965 24.234 0.0496219 0.113701 5.14787 -45.0322 10.7747 -1.23299 -7.60729 7.53365 -4.76911 -0.398459 -1.13082 -12.9547 3.2495 -3.26872 67.7526 19.2659 20.3011 -29.2081 0.0598081 0.137039 -6.67246 -2.00466 34.0056 -24.234 0.0496218 0.113702 0.804314 -33.6278 4.81994 9.23673 -4.20556 2.0327 18.409 -28.231 -2.88109 -0.852353 -38.7721 -0.655187 0.791047 -2.9438 0.0717307 -2.32622 -40.4017 -6.04875 -12.5575 11.201 18.1073 0.779096 -9.8844 12.4959 2.66893e-16 -6.61353e-16 -2.02333e-16 -9.23673 -4.20556 2.0327 5.21925 12.984 18.2965 0.852353 -38.7721 -0.655187 0.960182 3.58589 0.0325509 2.32622 -40.4017 -6.04875 -13.4242 -18.4067 -16.6412 -0.779096 -9.8844 12.4959 -9.59461e-19 -4.1177e-16 -1.26045e-14 
-409.861 86.1339 -139.483 -5.92049 -0.565249 -12.6025 0 5.07867 -1.15138 1.87135 1.02653 2.85864 0 5.61661 1.07143 1.2993 1.29314 2.95116 -1.02604e-17 5.98978 0.11501 0.706078 1.7797 2.85097 -1.10457e-17 6.50583 -0.443523 0.151841 2.06007 2.80012 -1.97295e-17 7.60548 -1.50593 0.102095 2.19619 2.6823 -2.53307e-17 9.49737 -0.914492 0.389698 2.67249 2.40478 -2.90401e-17 10.5513 1.57691 0.121574 0.766994 -0.306635 -1.29193e-17 4.78644 0.715339 -1.38465 -4.41381 -6.76029 -1.8116e-17 4.82109 0.421791 0.358248 -6.61753 -3.20799 -2.00958e-17 4.83041 0.765062 1.60522 -5.51392 4.61395 1.23299 -7.60731 7.53374 -5.95273 4.3949 -0.842569 12.9547 3.2495 -3.26872 -81.1393 0.905773 22.7155 29.2081 0.0598081 0.137039 1.84382 -0.134232 -8.91982 24.234 0.0496219 0.113701 5.2028 -42.065 11.1561 -1.23299 -7.60729 7.53365 -4.67696 -0.493578 -1.29913 -12.9547 3.2495 -3.26872 67.8356 19.2391 20.8685 -29.2081 0.0598081 0.137039 -6.7736 -2.07284 34.5897 -24.234 0.0496218 0.113702 0.628182 -33.661 4.74482 9.23673 -4.20556 2.0327 18.5273 -27.6403 -2.27019 -0.852353 -38.7721 -0.655187 0.584499 -2.17707 0.0491159 -2.32622 -40.4017 -6.04875 -11.485 9.03493 17.5162 0.779096 -9.8844 12.4959 1.87803e-15 -5.91744e-16 -2.70213e-16 -9.23673 -4.20556 2.0327 4.9994 13.9087 18.9311 0.852353 -38.7721 -0.655187 1.54002 5.74671 0.0230879 2.32622 -40.4017 -6.04875 -12.9287 -18.5565 -16.6497 -0.779096 -9.8844 12.4959 -7.28419e-17 -4.08665e-16 -1.26e-14 
-410.604 85.8622 -136.705 -5.66394 -0.682715 -12.9556 0 5.07867 -1.15138 1.59969 0.857495 3.03656 0 5.61661 1.07143 1.04318 1.17504 3.08628 -1.02604e-17 5.98978 0.11501 0.497434 1.71118 2.97542 -1.10457e-17 6.50583 -0.443523 -0.0108654 2.07346 2.9228 -1.97295e-17 7.60548 -1.50593 0.0245508 2.29519 2.83382 -2.53307e-17 9.49737 -0.914492 0.411187 2.81647 2.54715 -2.90401e-17 10.5513 1.57691 0.117406 0.759495 -0.313477 -1.29193e-17 4.78644 0.715339 -1.41248 -4.34206 -6.85645 -1.8116e-17 4.82109 0.421791 0.475613 -6.55402 -3.26616 -2.00958e-17 4.83041 0.765062 1.75514 -5.34123 4.14459 1.23299 -7.60731 7.53374 -5.20474 4.22901 -0.393212 12.9547 3.2495 -3.26872 -80.5404 0.0390476 23.7385 29.2081 0.0598081 0.137039 1.95348 -0.151384 -9.45464 24.234 0.0496219 0.113701 4.84256 -39.1057 11.0938 -1.23299 -7.60729 7.53365 -4.65052 -0.535822 -1.55969 -12.9547 3.2495 -3.26872 68.2653 19.3506 21.0349 -29.2081 0.0598081 0.137039 -6.87141 -2.14022 35.1585 -24.234 0.0496218 0.113702 0.495104 -33.6774 4.71098 9.23673 -4.20556 2.0327 18.3652 -27.1846 -2.21579 -0.852353 -38.7721 -0.655187 0.0750947 -0.280164 0.00507396 -2.32622 -40.4017 -6.04875 -10.9581 7.6603 17.0845 0.779096 -9.8844 12.4959 -1.5547e-15 -7.40054e-16 -1.25053e-16 -9.23673 -4.20556 2.0327 4.67323 14.393 19.5553 0.852353 -38.7721 -0.655187 2.30258 8.57037 -0.0226716 2.32622 -40.4017 -6.04875 -11.9853 -18.3043 -16.6554 -0.779096 -9.8844 12.4959 6.81126e-17 -4.14755e-16 -1.26108e-14 
-411.372 85.6477 -133.836 -5.1432 -0.432895 -13.134 0 5.07867 -1.15138 1.24582 0.567997 3.18176 0 5.61661 1.07143 0.716237 0.966735 3.17788 -1.02604e-17 5.98978 0.11501 0.232643 1.57698 3.056 -1.10457e-17 6.50583 -0.443523 -0.214094 2.0773 2.99768 -1.97295e-17 7.60548 -1.50593 -0.0865943 2.41726 2.94337 -2.53307e-17 9.49737 -0.914492 0.40867 2.96924 2.66328 -2.90401e-17 10.5513 1.57691 0.112291 0.743634 -0.327542 -1.29193e-17 4.78644 0.715339 -1.42819 -4.1431 -6.88533 -1.8116e-17 4.82109 0.421791 0.575815 -6.54698 -3.28989 -2.00958e-17 4.83041 0.765062 1.93253 -5.49599 3.64644 1.23299 -7.60731 7.53374 -4.35286 4.05418 0.0609894 12.9547 3.2495 -3.26872 -80.0057 -0.618462 24.5633 29.2081 0.0598081 0.137039 2.06566 -0.170017 -10.0025 24.234 0.0496219 0.113701 4.21587 -36.7311 10.6032 -1.23299 -7.60729 7.53365 -4.71375 -0.564249 -1.87672 -12.9547 3.2495 -3.26872 69.0837 19.759 20.8061 -29.2081 0.0598081 0.137039 -7.00449 -2.23421 35.9385 -24.234 0.0496218 0.113702 0.2854 -33.8218 4.67901 9.23673 -4.20556 2.0327 17.9849 -27.4281 -2.54591 -0.852353 -38.7721 -0.655187 -0.705379 2.63441 -0.0297694 -2.32622 -40.4017 -6.04875 -10.8997 7.21719 16.8137 0.779096 -9.8844 12.4959 1.01834e-16 -6.68484e-16 -1.97526e-16 -9.23673 -4.20556 2.0327 4.24076 14.0775 19.9748 0.852353 -38.7721 -0.655187 3.25174 12.037 -0.131976 2.32622 -40.4017 -6.04875 -10.3204 -17.5074 -16.6302 -0.779096 -9.8844 12.4959 -5.94503e-16 -3.86127e-16 -1.25797e-14 
-412.105 85.6051 -130.93 -4.24664 -0.825743 -12.5349 0 5.07867 -1.15138 0.615541 0.484169 3.29644 0 5.61661 1.07143 0.151021 0.915017 3.20524 -1.02604e-17 5.98978 0.11501 -0.215969 1.55837 3.07641 -1.10457e-17 6.50583 -0.443523 -0.545566 2.11861 3.00818 -1.97295e-17 7.60548 -1.50593 -0.278597 2.50874 3.01378 -2.53307e-17 9.49737 -0.914492 0.376895 3.0314 2.75999 -2.90401e-17 10.5513 1.57691 0.106287 0.740249 -0.337988 -1.29193e-17 4.78644 0.715339 -1.51972 -3.96839 -7.15602 -1.8116e-17 4.82109 0.421791 0.684698 -6.70146 -3.4319 -2.00958e-17 4.83041 0.765062 2.58077 -5.63787 2.89817 1.23299 -7.60731 7.53374 -3.7856 3.99429 0.33547 12.9547 3.2495 -3.26872 -78.9176 -1.24868 24.7854 29.2081 0.0598081 0.137039 2.14986 -0.184731 -10.4143 24.234 0.0496219 0.113701 3.92645 -34.7942 10.0173 -1.23299 -7.60729 7.53365 -4.61871 -0.424367 -1.97343 -12.9547 3.2495 -3.26872 70.2999 19.9753 19.9841 -29.2081 0.0598081 0.137039 -7.09253 -2.2979 36.4586 -24.234 0.0496218 0.113702 0.154625 -34.4626 4.93154 9.23673 -4.20556 2.0327 16.5624 -28.2793 -4.14242 -0.852353 -38.7721 -0.655187 -1.83901 6.85696 -0.00964469 -2.32622 -40.4017 -6.04875 -10.5506 8.35849 16.7653 0.779096 -9.8844 12.4959 -8.69605e-16 -7.10455e-16 -1.57079e-16 -9.23673 -4.20556 2.0327 3.40912 13.526 19.4125 0.852353 -38.7721 -0.655187 4.50239 16.4844 -0.362536 2.32622 -40.4017 -6.04875 -7.20631 -15.2421 -16.4122 -0.779096 -9.8844 12.4959 -1.25712e-15 -3.57499e-16 -1.25487e-14 
-412.802 85.7331 -128.083 -3.14086 -1.21827 -11.7651 0 5.07867 -1.15138 -0.0616003 0.500942 3.36526 0 5.61661 1.07143 -0.442315 0.923556 3.18234 -1.02604e-17 5.98978 0.11501 -0.675598 1.56351 3.04993 -1.10457e-17 6.50583 -0.443523 -0.869296 2.12259 2.97227 -1.97295e-17 7.60548 -1.50593 -0.45615 2.52102 3.03635 -2.53307e-17 9.49737 -0.914492 0.360848 2.97681 2.80561 -2.90401e-17 10.5513 1.57691 0.0965734 0.752322 -0.338581 -1.29193e-17 4.78644 0.715339 -1.60657 -3.91148 -7.43497 -1.8116e-17 4.82109 0.421791 0.881807 -6.80082 -3.57041 -2.00958e-17 4.83041 0.765062 2.98776 -5.87274 2.22966 1.23299 -7.60731 7.53374 -3.42818 4.04386 0.453116 12.9547 3.2495 -3.26872 -77.6986 -1.66539 24.6035 29.2081 0.0598081 0.137039 2.2295 -0.199224 -10.8042 24.234 0.0496219 0.113701 3.48262 -33.5681 9.56061 -1.23299 -7.60729 7.53365 -4.32678 -0.151177 -1.87033 -12.9547 3.2495 -3.26872 71.507 20.0129 18.9982 -29.2081 0.0598081 0.137039 -7.11494 -2.31431 36.5915 -24.234 0.0496218 0.113702 0.143602 -34.9122 5.27789 9.23673 -4.20556 2.0327 14.5072 -28.6718 -6.221 -0.852353 -38.7721 -0.655187 -2.78304 10.3332 0.0708034 -2.32622 -40.4017 -6.04875 -9.68176 8.77587 16.6414 0.779096 -9.8844 12.4959 2.34357e-16 -6.62759e-16 -1.97614e-16 -9.23673 -4.20556 2.0327 2.3507 12.1013 18.398 0.852353 -38.7721 -0.655187 6.0228 21.6443 -0.769306 2.32622 -40.4017 -6.04875 -3.23913 -10.8781 -16.072 -0.779096 -9.8844 12.4959 -8.70791e-16 -3.7419e-16 -1.25668e-14 
